<svg aria-hidden="true" style="width:0;height:0;position:absolute;overflow:hidden" xmlns="http://www.w3.org/2000/svg"><defs><symbol id="icon-settings" viewBox="0 0 32 32"><path fill="#ffca12" style="fill:var(--color1,#ffca12)" d="M31.363 19.582v-7.165h-3.309a12.387 12.387 0 0 0-1.03-2.472l.033.065 2.34-2.34-5.066-5.066-2.34 2.34a12.09 12.09 0 0 0-2.319-.974l-.088-.023V.638h-7.165v3.309c-.924.277-1.722.616-2.472 1.03l.065-.033-2.34-2.34L2.606 7.67l2.34 2.34a12.09 12.09 0 0 0-.974 2.319l-.023.088H.64v7.165h3.309c.277.924.616 1.722 1.03 2.472l-.033-.064-2.34 2.34 5.066 5.066 2.34-2.34c.686.381 1.484.72 2.319.974l.088.023v3.309h7.165v-3.309a12.387 12.387 0 0 0 2.472-1.03l-.064.033 2.34 2.34 5.066-5.066-2.34-2.34c.381-.686.72-1.484.974-2.319l.023-.088h3.309zM16 21.752a5.752 5.752 0 1 1 0-11.503 5.752 5.752 0 0 1 0 11.503z"/><path style="fill:var(--color2,#000)" d="M19.582 32h-7.165a.637.637 0 0 1-.637-.637v-2.842c-.655-.222-1.2-.453-1.725-.718l.076.035-2.01 2.01a.638.638 0 0 1-.902 0l-5.066-5.066a.637.637 0 0 1 0-.901l2.01-2.01c-.231-.45-.462-.995-.655-1.557l-.028-.093H.638a.637.637 0 0 1-.637-.637v-7.165c0-.352.285-.637.637-.637H3.48c.222-.655.453-1.2.718-1.725l-.035.075-2.01-2.01a.638.638 0 0 1 0-.902l5.066-5.066a.638.638 0 0 1 .902 0l2.01 2.01c.45-.231.995-.462 1.557-.655l.093-.028V.639c0-.352.285-.637.637-.637h7.165c.352 0 .637.285.637.637v2.842c.655.222 1.2.453 1.725.718l-.075-.035 2.01-2.01a.637.637 0 0 1 .901 0l5.066 5.066a.638.638 0 0 1 0 .902l-2.01 2.01c.231.45.462.995.655 1.557l.028.092h2.842c.352 0 .637.285.637.637v7.165a.637.637 0 0 1-.637.637H28.52c-.222.655-.453 1.2-.718 1.725l.035-.075 2.01 2.01a.637.637 0 0 1 0 .901l-5.066 5.066a.637.637 0 0 1-.901 0l-2.01-2.01c-.45.231-.995.462-1.557.655l-.093.028v2.842a.638.638 0 0 1-.637.638zm-6.527-1.275h5.89v-2.671c0-.287.19-.53.452-.61l.005-.001a11.794 11.794 0 0 0 2.347-.978l-.061.031a.635.635 0 0 1 .755.11l1.889 1.889 4.165-4.165-1.889-1.889a.637.637 0 0 1-.108-.758l-.002.003c.362-.651.683-1.409.924-2.201l.022-.084a.639.639 0 0 1 .611-.456h2.671v-5.89h-2.671a.638.638 0 0 1-.61-.452l-.001-.005a11.853 11.853 0 0 0-.977-2.347l.031.061a.635.635 0 0 1 .11-.755l1.889-1.889-4.165-4.165-1.889 1.889a.637.637 0 0 1-.758.108l.003.002a11.52 11.52 0 0 0-2.201-.925l-.084-.022a.639.639 0 0 1-.456-.611V1.273h-5.89v2.671c0 .287-.19.53-.452.61l-.005.001c-.877.263-1.634.585-2.347.978l.061-.031a.635.635 0 0 1-.755-.11L7.67 3.503 3.505 7.668l1.889 1.889a.637.637 0 0 1 .108.758l.002-.003a11.455 11.455 0 0 0-.924 2.201l-.022.084a.639.639 0 0 1-.611.456H1.276v5.89h2.671c.287 0 .53.19.61.452l.001.005c.263.877.585 1.634.978 2.347l-.031-.061a.635.635 0 0 1-.11.755L3.506 24.33l4.165 4.165 1.889-1.889a.637.637 0 0 1 .758-.108l-.003-.002c.651.362 1.409.683 2.201.924l.084.022a.639.639 0 0 1 .456.611v2.671zM16 22.39c-3.523 0-6.39-2.866-6.39-6.39S12.477 9.61 16 9.61s6.39 2.867 6.39 6.39-2.866 6.39-6.39 6.39zm0-11.505c-2.82 0-5.115 2.295-5.115 5.115S13.18 21.115 16 21.115c2.82 0 5.115-2.295 5.115-5.115S18.821 10.885 16 10.885z"/><path style="fill:var(--color2,#000)" d="M16 24.685a.637.637 0 1 1 0-1.274 7.422 7.422 0 0 0 6.99-4.944.637.637 0 1 1 1.202.424A8.7 8.7 0 0 1 16 24.686zm8.039-7.665-.03-.001a.637.637 0 0 1-.607-.666A6.93 6.93 0 0 0 23.41 16a.637.637 0 1 1 1.274 0c0 .137-.003.275-.01.412a.638.638 0 0 1-.636.608z"/></symbol><symbol id="icon-stats" viewBox="0 0 32 32"><path fill="#ff5023" style="fill:var(--color3,#ff5023)" d="M2.462 14.359h4.923v11.487H2.462z"/><path fill="#ff9811" style="fill:var(--color4,#ff9811)" d="M2.462 8.615h4.923v5.744H2.462z"/><path fill="#ffda44" style="fill:var(--color5,#ffda44)" d="M2.462 2.872h4.923v5.744H2.462z"/><path fill="#ff5023" style="fill:var(--color3,#ff5023)" d="M9.846 20.103h4.923v5.743H9.846z"/><path fill="#ff9811" style="fill:var(--color4,#ff9811)" d="M9.846 11.897h4.923v8.205H9.846z"/><path fill="#ffda44" style="fill:var(--color5,#ffda44)" d="M9.846 6.154h4.923v5.744H9.846z"/><path fill="#ff5023" style="fill:var(--color3,#ff5023)" d="M17.231 17.641h4.923v8.205h-4.923z"/><path fill="#ff9811" style="fill:var(--color4,#ff9811)" d="M17.231 8.615h4.923v9.026h-4.923z"/><path fill="#ffda44" style="fill:var(--color5,#ffda44)" d="M17.231 2.872h4.923v5.744h-4.923z"/><path fill="#ff5023" style="fill:var(--color3,#ff5023)" d="M24.615 20.103h4.923v5.743h-4.923z"/><path fill="#ff9811" style="fill:var(--color4,#ff9811)" d="M24.615 14.359h4.923v5.744h-4.923z"/><path fill="#ffda44" style="fill:var(--color5,#ffda44)" d="M24.615 6.154h4.923v8.205h-4.923z"/><path fill="#cdcdd0" style="fill:var(--color6,#cdcdd0)" d="M14.769 25.846H0v3.282h16v-3.282z"/><path fill="#acabb1" style="fill:var(--color7,#acabb1)" d="M29.538 25.846H16v3.282h16v-3.282z"/></symbol></defs></svg>