<svg aria-hidden="true" style="width:0;height:0;position:absolute;overflow:hidden" xmlns="http://www.w3.org/2000/svg"><defs><symbol id="icon-settings" viewBox="0 0 32 32"><path fill="#ffca12" style="fill:var(--color1,#ffca12)" d="M31.363 19.582v-7.165h-3.309a12.387 12.387 0 0 0-1.03-2.472l.033.065 2.34-2.34-5.066-5.066-2.34 2.34a12.09 12.09 0 0 0-2.319-.974l-.088-.023V.638h-7.165v3.309c-.924.277-1.722.616-2.472 1.03l.065-.033-2.34-2.34L2.606 7.67l2.34 2.34a12.09 12.09 0 0 0-.974 2.319l-.023.088H.64v7.165h3.309c.277.924.616 1.722 1.03 2.472l-.033-.064-2.34 2.34 5.066 5.066 2.34-2.34c.686.381 1.484.72 2.319.974l.088.023v3.309h7.165v-3.309a12.387 12.387 0 0 0 2.472-1.03l-.064.033 2.34 2.34 5.066-5.066-2.34-2.34c.381-.686.72-1.484.974-2.319l.023-.088h3.309zM16 21.752a5.752 5.752 0 1 1 0-11.503 5.752 5.752 0 0 1 0 11.503z"/><path style="fill:var(--color2,#000)" d="M19.582 32h-7.165a.637.637 0 0 1-.637-.637v-2.842c-.655-.222-1.2-.453-1.725-.718l.076.035-2.01 2.01a.638.638 0 0 1-.902 0l-5.066-5.066a.637.637 0 0 1 0-.901l2.01-2.01c-.231-.45-.462-.995-.655-1.557l-.028-.093H.638a.637.637 0 0 1-.637-.637v-7.165c0-.352.285-.637.637-.637H3.48c.222-.655.453-1.2.718-1.725l-.035.075-2.01-2.01a.638.638 0 0 1 0-.902l5.066-5.066a.638.638 0 0 1 .902 0l2.01 2.01c.45-.231.995-.462 1.557-.655l.093-.028V.639c0-.352.285-.637.637-.637h7.165c.352 0 .637.285.637.637v2.842c.655.222 1.2.453 1.725.718l-.075-.035 2.01-2.01a.637.637 0 0 1 .901 0l5.066 5.066a.638.638 0 0 1 0 .902l-2.01 2.01c.231.45.462.995.655 1.557l.028.092h2.842c.352 0 .637.285.637.637v7.165a.637.637 0 0 1-.637.637H28.52c-.222.655-.453 1.2-.718 1.725l.035-.075 2.01 2.01a.637.637 0 0 1 0 .901l-5.066 5.066a.637.637 0 0 1-.901 0l-2.01-2.01c-.45.231-.995.462-1.557.655l-.093.028v2.842a.638.638 0 0 1-.637.638zm-6.527-1.275h5.89v-2.671c0-.287.19-.53.452-.61l.005-.001a11.794 11.794 0 0 0 2.347-.978l-.061.031a.635.635 0 0 1 .755.11l1.889 1.889 4.165-4.165-1.889-1.889a.637.637 0 0 1-.108-.758l-.002.003c.362-.651.683-1.409.924-2.201l.022-.084a.639.639 0 0 1 .611-.456h2.671v-5.89h-2.671a.638.638 0 0 1-.61-.452l-.001-.005a11.853 11.853 0 0 0-.977-2.347l.031.061a.635.635 0 0 1 .11-.755l1.889-1.889-4.165-4.165-1.889 1.889a.637.637 0 0 1-.758.108l.003.002a11.52 11.52 0 0 0-2.201-.925l-.084-.022a.639.639 0 0 1-.456-.611V1.273h-5.89v2.671c0 .287-.19.53-.452.61l-.005.001c-.877.263-1.634.585-2.347.978l.061-.031a.635.635 0 0 1-.755-.11L7.67 3.503 3.505 7.668l1.889 1.889a.637.637 0 0 1 .108.758l.002-.003a11.455 11.455 0 0 0-.924 2.201l-.022.084a.639.639 0 0 1-.611.456H1.276v5.89h2.671c.287 0 .53.19.61.452l.001.005c.263.877.585 1.634.978 2.347l-.031-.061a.635.635 0 0 1-.11.755L3.506 24.33l4.165 4.165 1.889-1.889a.637.637 0 0 1 .758-.108l-.003-.002c.651.362 1.409.683 2.201.924l.084.022a.639.639 0 0 1 .456.611v2.671zM16 22.39c-3.523 0-6.39-2.866-6.39-6.39S12.477 9.61 16 9.61s6.39 2.867 6.39 6.39-2.866 6.39-6.39 6.39zm0-11.505c-2.82 0-5.115 2.295-5.115 5.115S13.18 21.115 16 21.115c2.82 0 5.115-2.295 5.115-5.115S18.821 10.885 16 10.885z"/><path style="fill:var(--color2,#000)" d="M16 24.685a.637.637 0 1 1 0-1.274 7.422 7.422 0 0 0 6.99-4.944.637.637 0 1 1 1.202.424A8.7 8.7 0 0 1 16 24.686zm8.039-7.665-.03-.001a.637.637 0 0 1-.607-.666A6.93 6.93 0 0 0 23.41 16a.637.637 0 1 1 1.274 0c0 .137-.003.275-.01.412a.638.638 0 0 1-.636.608z"/></symbol><symbol id="icon-stats" viewBox="0 0 32 32"><path fill="#ff5023" style="fill:var(--color3,#ff5023)" d="M2.462 14.359h4.923v11.487H2.462z"/><path fill="#ff9811" style="fill:var(--color4,#ff9811)" d="M2.462 8.615h4.923v5.744H2.462z"/><path fill="#ffda44" style="fill:var(--color5,#ffda44)" d="M2.462 2.872h4.923v5.744H2.462z"/><path fill="#ff5023" style="fill:var(--color3,#ff5023)" d="M9.846 20.103h4.923v5.743H9.846z"/><path fill="#ff9811" style="fill:var(--color4,#ff9811)" d="M9.846 11.897h4.923v8.205H9.846z"/><path fill="#ffda44" style="fill:var(--color5,#ffda44)" d="M9.846 6.154h4.923v5.744H9.846z"/><path fill="#ff5023" style="fill:var(--color3,#ff5023)" d="M17.231 17.641h4.923v8.205h-4.923z"/><path fill="#ff9811" style="fill:var(--color4,#ff9811)" d="M17.231 8.615h4.923v9.026h-4.923z"/><path fill="#ffda44" style="fill:var(--color5,#ffda44)" d="M17.231 2.872h4.923v5.744h-4.923z"/><path fill="#ff5023" style="fill:var(--color3,#ff5023)" d="M24.615 20.103h4.923v5.743h-4.923z"/><path fill="#ff9811" style="fill:var(--color4,#ff9811)" d="M24.615 14.359h4.923v5.744h-4.923z"/><path fill="#ffda44" style="fill:var(--color5,#ffda44)" d="M24.615 6.154h4.923v8.205h-4.923z"/><path fill="#cdcdd0" style="fill:var(--color6,#cdcdd0)" d="M14.769 25.846H0v3.282h16v-3.282z"/><path fill="#acabb1" style="fill:var(--color7,#acabb1)" d="M29.538 25.846H16v3.282h16v-3.282z"/></symbol><symbol id="icon-show-password" viewBox="0 0 32 32"><path d="M23.59 14.66c.6 1.2.91 2.49.91 3.84 0 4.69-3.81 8.5-8.5 8.5s-8.5-3.81-8.5-8.5S11.31 10 16 10c.07 0 .24 0 .42.06.34.11.59.4.66.75.42 2.01 2.21 3.48 4.27 3.48.38 0 .75-.05 1.07-.14.47-.13.95.09 1.17.51zM16 5C9.16 5 2.15 11 1.01 17.83c-.09.54.28 1.06.82 1.15s1.06-.28 1.15-.82C3.87 12.89 9.62 7 16 7s12.13 5.89 13.01 11.16c.08.49.51.84.99.84.05 0 .11 0 .17-.01.54-.09.91-.61.82-1.15C29.85 11 22.84 5 16 5z"/></symbol><symbol id="icon-not-show-password" viewBox="0 0 32 32"><path d="M29.013 16.293 27.12 14.12c.507-.667.8-1.147.84-1.227.373-.627.16-1.453-.467-1.827s-1.453-.173-1.827.467c-.04.067-3.853 6.333-9.667 6.333s-9.347-6-9.587-6.413a1.358 1.358 0 0 0-1.067-.787 1.335 1.335 0 0 0-1.48 1.173c-.067.533.48 1.427 1.08 2.24l-1.933 2.213a1.328 1.328 0 0 0 .132 1.879l.002.001a1.324 1.324 0 0 0 1.878-.118l.001-.002 1.68-1.92a17.906 17.906 0 0 0 2.413 2.08l-1.653 3.027c-.347.64-.12 1.453.533 1.813a1.343 1.343 0 0 0 1.809-.527l.004-.007 1.627-2.973c.987.44 2.08.747 3.253.893v2.733c0 .733.6 1.333 1.333 1.333s1.333-.6 1.333-1.333v-2.72a11.424 11.424 0 0 0 3.24-.92l1.64 3c.24.44.693.693 1.173.693.213 0 .44-.053.64-.16.64-.347.88-1.16.533-1.813l-1.653-3.027a16.797 16.797 0 0 0 2.453-2.08l1.64 1.88c.267.307.627.453 1 .453.307 0 .627-.107.88-.333.56-.48.613-1.32.133-1.88z"/></symbol><symbol id="icon-email" viewBox="0 0 37 32"><path d="M19.623 26.432c0-.599.073-1.182.16-1.762H3.57V7.047l14.272 8.811 14.272-8.809v8.969c1.339.228 2.538.671 3.617 1.296l-.052-.028V3.524c0-1.938-1.605-3.525-3.566-3.525H3.564c-1.961 0-3.566 1.586-3.566 3.525v21.145c0 1.938 1.605 3.525 3.568 3.525h16.217a11.184 11.184 0 0 1-.16-1.754v-.009zM32.114 3.525 17.84 12.334 3.566 3.525H32.11zM28.098 32l-4.907-5.287 2.071-2.043 2.834 2.802 6.407-6.327 2.069 2.485L28.099 32z"/></symbol></defs></svg>