<svg aria-hidden="true" style="position: absolute; width: 0; height: 0; overflow: hidden;" version="1.1" xmlns="http://www.w3.org/2000/svg" xmlns:xlink="http://www.w3.org/1999/xlink">
<defs>
<symbol id="icon-settings" viewBox="0 0 32 32">
<path fill="#ffca12" style="fill: var(--color1, #ffca12)" d="M31.363 19.582v-7.165h-3.309c-0.277-0.924-0.616-1.722-1.030-2.472l0.033 0.065 2.34-2.34-5.066-5.066-2.34 2.34c-0.686-0.381-1.484-0.72-2.319-0.974l-0.088-0.023v-3.309h-7.165v3.309c-0.924 0.277-1.722 0.616-2.472 1.030l0.065-0.033-2.34-2.34-5.066 5.066 2.34 2.34c-0.381 0.686-0.72 1.484-0.974 2.319l-0.023 0.088h-3.309v7.165h3.309c0.277 0.924 0.616 1.722 1.030 2.472l-0.033-0.064-2.34 2.34 5.066 5.066 2.34-2.34c0.686 0.381 1.484 0.72 2.319 0.974l0.088 0.023v3.309h7.165v-3.309c0.924-0.277 1.722-0.616 2.472-1.030l-0.064 0.033 2.34 2.34 5.066-5.066-2.34-2.34c0.381-0.686 0.72-1.484 0.974-2.319l0.023-0.088 3.309-0zM16 21.752c-3.177 0-5.752-2.575-5.752-5.752s2.575-5.752 5.752-5.752 5.752 2.575 5.752 5.752-2.575 5.752-5.752 5.752z"></path>
<path fill="#000" style="fill: var(--color2, #000)" d="M19.582 32h-7.165c-0.352 0-0.637-0.285-0.637-0.637v-2.842c-0.655-0.222-1.2-0.453-1.725-0.718l0.076 0.035-2.010 2.010c-0.249 0.249-0.653 0.249-0.902 0l-5.066-5.066c-0.249-0.249-0.249-0.653 0-0.901l2.010-2.010c-0.231-0.45-0.462-0.995-0.655-1.557l-0.028-0.093h-2.842c-0.352 0-0.637-0.285-0.637-0.637v-7.165c0-0.352 0.285-0.637 0.637-0.637h2.842c0.222-0.655 0.453-1.2 0.718-1.725l-0.035 0.075-2.010-2.010c-0.249-0.249-0.249-0.653 0-0.902l5.066-5.066c0.249-0.249 0.653-0.249 0.902 0l2.010 2.010c0.45-0.231 0.995-0.462 1.557-0.655l0.093-0.028v-2.842c-0-0.352 0.285-0.637 0.637-0.637h7.165c0.352 0 0.637 0.285 0.637 0.637v2.842c0.655 0.222 1.2 0.453 1.725 0.718l-0.075-0.035 2.010-2.010c0.249-0.249 0.653-0.249 0.901 0l5.066 5.066c0.249 0.249 0.249 0.653 0 0.902l-2.010 2.010c0.231 0.45 0.462 0.995 0.655 1.557l0.028 0.092h2.842c0.352 0 0.637 0.285 0.637 0.637v7.165c0 0.352-0.285 0.637-0.637 0.637h-2.842c-0.222 0.655-0.453 1.2-0.718 1.725l0.035-0.075 2.010 2.010c0.249 0.249 0.249 0.653 0 0.901l-5.066 5.066c-0.249 0.249-0.653 0.249-0.901 0l-2.010-2.010c-0.45 0.231-0.995 0.462-1.557 0.655l-0.093 0.028v2.842c0 0.352-0.285 0.638-0.637 0.638zM13.055 30.725h5.89v-2.671c0-0.287 0.19-0.53 0.452-0.61l0.005-0.001c0.877-0.263 1.634-0.585 2.347-0.978l-0.061 0.031c0.088-0.049 0.193-0.077 0.304-0.077 0.176 0 0.335 0.071 0.451 0.187l1.889 1.889 4.165-4.165-1.889-1.889c-0.115-0.115-0.187-0.275-0.187-0.451 0-0.111 0.029-0.216 0.079-0.307l-0.002 0.003c0.362-0.651 0.683-1.409 0.924-2.201l0.022-0.084c0.081-0.266 0.324-0.456 0.611-0.456h2.671v-5.89h-2.671c-0.287 0-0.53-0.19-0.61-0.452l-0.001-0.005c-0.263-0.877-0.585-1.634-0.977-2.347l0.031 0.061c-0.049-0.088-0.077-0.193-0.077-0.304 0-0.176 0.071-0.335 0.187-0.451l1.889-1.889-4.165-4.165-1.889 1.889c-0.115 0.115-0.275 0.187-0.451 0.187-0.111 0-0.216-0.029-0.307-0.079l0.003 0.002c-0.651-0.362-1.409-0.683-2.201-0.925l-0.084-0.022c-0.266-0.081-0.456-0.324-0.456-0.611v0-2.671h-5.89v2.671c0 0.287-0.19 0.53-0.452 0.61l-0.005 0.001c-0.877 0.263-1.634 0.585-2.347 0.978l0.061-0.031c-0.088 0.049-0.193 0.077-0.304 0.077-0.176 0-0.335-0.071-0.451-0.187l-1.889-1.889-4.165 4.165 1.889 1.889c0.115 0.115 0.187 0.275 0.187 0.451 0 0.111-0.029 0.216-0.079 0.307l0.002-0.003c-0.362 0.651-0.683 1.409-0.924 2.201l-0.022 0.084c-0.081 0.266-0.324 0.456-0.611 0.456h-2.671v5.89h2.671c0.287 0 0.53 0.19 0.61 0.452l0.001 0.005c0.263 0.877 0.585 1.634 0.978 2.347l-0.031-0.061c0.049 0.088 0.077 0.193 0.077 0.304 0 0.176-0.071 0.335-0.187 0.451l-1.889 1.889 4.165 4.165 1.889-1.889c0.115-0.115 0.275-0.187 0.451-0.187 0.111 0 0.216 0.029 0.307 0.079l-0.003-0.002c0.651 0.362 1.409 0.683 2.201 0.924l0.084 0.022c0.266 0.081 0.456 0.324 0.456 0.611v0 2.671h-0zM16 22.39c-3.523 0-6.39-2.866-6.39-6.39s2.867-6.39 6.39-6.39 6.39 2.867 6.39 6.39-2.866 6.39-6.39 6.39zM16 10.885c-2.82 0-5.115 2.295-5.115 5.115s2.295 5.115 5.115 5.115c2.82 0 5.115-2.295 5.115-5.115s-2.294-5.115-5.115-5.115z"></path>
<path fill="#000" style="fill: var(--color2, #000)" d="M16 24.685c-0.352 0-0.637-0.285-0.637-0.637s0.285-0.637 0.637-0.637c3.138 0 5.947-1.987 6.99-4.944 0.117-0.332 0.481-0.506 0.813-0.389s0.506 0.481 0.389 0.813c-1.223 3.466-4.515 5.795-8.192 5.795zM24.039 17.020c-0.010 0-0.020-0-0.030-0.001-0.352-0.016-0.623-0.315-0.607-0.666 0.006-0.117 0.008-0.236 0.008-0.353 0-0.352 0.285-0.637 0.637-0.637s0.637 0.285 0.637 0.637c0 0.137-0.003 0.275-0.010 0.412-0.016 0.341-0.298 0.608-0.636 0.608z"></path>
</symbol>
<symbol id="icon-stats" viewBox="0 0 32 32">
<path fill="#ff5023" style="fill: var(--color3, #ff5023)" d="M2.462 14.359h4.923v11.487h-4.923z"></path>
<path fill="#ff9811" style="fill: var(--color4, #ff9811)" d="M2.462 8.615h4.923v5.744h-4.923z"></path>
<path fill="#ffda44" style="fill: var(--color5, #ffda44)" d="M2.462 2.872h4.923v5.744h-4.923z"></path>
<path fill="#ff5023" style="fill: var(--color3, #ff5023)" d="M9.846 20.103h4.923v5.743h-4.923z"></path>
<path fill="#ff9811" style="fill: var(--color4, #ff9811)" d="M9.846 11.897h4.923v8.205h-4.923z"></path>
<path fill="#ffda44" style="fill: var(--color5, #ffda44)" d="M9.846 6.154h4.923v5.744h-4.923z"></path>
<path fill="#ff5023" style="fill: var(--color3, #ff5023)" d="M17.231 17.641h4.923v8.205h-4.923z"></path>
<path fill="#ff9811" style="fill: var(--color4, #ff9811)" d="M17.231 8.615h4.923v9.026h-4.923z"></path>
<path fill="#ffda44" style="fill: var(--color5, #ffda44)" d="M17.231 2.872h4.923v5.744h-4.923z"></path>
<path fill="#ff5023" style="fill: var(--color3, #ff5023)" d="M24.615 20.103h4.923v5.743h-4.923z"></path>
<path fill="#ff9811" style="fill: var(--color4, #ff9811)" d="M24.615 14.359h4.923v5.744h-4.923z"></path>
<path fill="#ffda44" style="fill: var(--color5, #ffda44)" d="M24.615 6.154h4.923v8.205h-4.923z"></path>
<path fill="#cdcdd0" style="fill: var(--color6, #cdcdd0)" d="M14.769 25.846h-14.769v3.282h16v-3.282z"></path>
<path fill="#acabb1" style="fill: var(--color7, #acabb1)" d="M29.538 25.846h-13.538v3.282h16v-3.282z"></path>
</symbol>
    <symbol id="icon-show-password" viewBox="0 0 32 32">
      <path d="M23.59 14.66c.6 1.2.91 2.49.91 3.84 0 4.69-3.81 8.5-8.5 8.5s-8.5-3.81-8.5-8.5S11.31 10 16 10c.07 0 .24 0 .42.06.34.11.59.4.66.75.42 2.01 2.21 3.48 4.27 3.48.38 0 .75-.05 1.07-.14.47-.13.95.09 1.17.51zM16 5C9.16 5 2.15 11 1.01 17.83c-.09.54.28 1.06.82 1.15s1.06-.28 1.15-.82C3.87 12.89 9.62 7 16 7s12.13 5.89 13.01 11.16c.08.49.51.84.99.84.05 0 .11 0 .17-.01.54-.09.91-.61.82-1.15C29.85 11 22.84 5 16 5z"/>
    </symbol>
<symbol id="icon-not-show-password" viewBox="0 0 32 32">
      <path d="M29.013 16.293 27.12 14.12c.507-.667.8-1.147.84-1.227.373-.627.16-1.453-.467-1.827s-1.453-.173-1.827.467c-.04.067-3.853 6.333-9.667 6.333s-9.347-6-9.587-6.413a1.358 1.358 0 0 0-1.067-.787 1.335 1.335 0 0 0-1.48 1.173c-.067.533.48 1.427 1.08 2.24l-1.933 2.213a1.328 1.328 0 0 0 .132 1.879l.002.001a1.324 1.324 0 0 0 1.878-.118l.001-.002 1.68-1.92a17.906 17.906 0 0 0 2.413 2.08l-1.653 3.027c-.347.64-.12 1.453.533 1.813a1.343 1.343 0 0 0 1.809-.527l.004-.007 1.627-2.973c.987.44 2.08.747 3.253.893v2.733c0 .733.6 1.333 1.333 1.333s1.333-.6 1.333-1.333v-2.72a11.424 11.424 0 0 0 3.24-.92l1.64 3c.24.44.693.693 1.173.693.213 0 .44-.053.64-.16.64-.347.88-1.16.533-1.813l-1.653-3.027a16.797 16.797 0 0 0 2.453-2.08l1.64 1.88c.267.307.627.453 1 .453.307 0 .627-.107.88-.333.56-.48.613-1.32.133-1.88z"/>
    </symbol>
    <symbol id="icon-email" viewBox="0 0 37 32"><path d="M19.623 26.432c0-.599.073-1.182.16-1.762H3.57V7.047l14.272 8.811 14.272-8.809v8.969c1.339.228 2.538.671 3.617 1.296l-.052-.028V3.524c0-1.938-1.605-3.525-3.566-3.525H3.564c-1.961 0-3.566 1.586-3.566 3.525v21.145c0 1.938 1.605 3.525 3.568 3.525h16.217a11.184 11.184 0 0 1-.16-1.754v-.009zM32.114 3.525 17.84 12.334 3.566 3.525H32.11zM28.098 32l-4.907-5.287 2.071-2.043 2.834 2.802 6.407-6.327 2.069 2.485L28.099 32z"/>
    </symbol>
</defs>
</svg>
